<?xml version="1.0" encoding="UTF-8" standalone="no"?>
<svg width="221px" height="221px" viewBox="0 0 221 221" version="1.1" xmlns="http://www.w3.org/2000/svg" xmlns:xlink="http://www.w3.org/1999/xlink">
    <!-- Generator: Sketch 3.6.1 (26313) - http://www.bohemiancoding.com/sketch -->
    <title>Inner</title>
    <desc>Created with Sketch.</desc>
    <defs></defs>
    <g id="Page-1" stroke="none" stroke-width="1" fill="none" fill-rule="evenodd">
        <g id="Berlin" transform="translate(-33.000000, -33.000000)">
            <g id="Inner" transform="translate(35.000000, 36.000000)">
                <path d="M108.134534,0.0600013733 C84.2080986,0.0600013733 62.1115857,7.88527701 44.2560954,21.1129478 L44.2462782,21.1208016 C17.8321688,40.6913535 0.710021973,72.0876828 0.710021973,107.485495 C0.710021973,166.814652 48.8063592,214.910989 108.134534,214.910989 C129.292524,214.910989 149.020151,208.789976 165.649476,198.228652 C165.650457,198.228652 165.650457,198.22767 165.651439,198.22767 C195.649802,179.17252 215.560028,145.65568 215.560028,107.485495 C215.560028,48.1553569 167.464673,0.0600013733 108.134534,0.0600013733" id="Fill-135" stroke="#979797" stroke-width="5" fill="#FFFFFF"></path>
                <path d="M108.136,216.909 C129.688,216.909 149.783,210.674 166.722,199.916 C166.723,199.916 166.723,199.915 166.724,199.915 C188.339,186.185 204.802,165.078 212.592,140.143 L195.81,140.143 L195.81,125.796 L197.354,124.042 L195.81,124.042 L195.81,123.028 L194.733,123.028 L194.733,117.298 L194.775,117.298 L198.148,113.462 L194.733,113.462 L194.733,112.581 L188.453,112.581 L188.453,107.556 L197.231,107.556 L197.231,101.54 L188.453,101.54 L188.453,101.077 L187.791,101.077 L187.791,112.581 L181.511,112.581 L181.511,113.462 L178.096,113.462 L181.469,117.298 L181.511,117.298 L181.511,123.028 L170.554,123.028 L170.554,115.491 L169.958,115.491 L169.958,111.524 L169.149,111.524 C169.475,111.343 169.694,110.996 169.694,110.598 C169.694,110.013 169.221,109.54 168.637,109.54 C168.052,109.54 167.579,110.013 167.579,110.598 C167.579,110.996 167.799,111.343 168.124,111.524 L167.313,111.524 L167.313,115.491 L165.502,115.491 C165.111,110.468 160.3,106.498 154.421,106.498 C148.543,106.498 143.731,110.468 143.34,115.491 L141.661,115.491 L141.661,111.524 L140.851,111.524 C141.177,111.343 141.396,110.996 141.396,110.598 C141.396,110.013 140.923,109.54 140.339,109.54 C139.755,109.54 139.28,110.013 139.28,110.598 C139.28,110.996 139.501,111.343 139.826,111.524 L139.017,111.524 L139.017,115.491 L138.289,115.491 L138.289,123.028 L127.382,123.028 L127.382,117.298 L127.424,117.298 L130.797,113.464 L127.382,113.464 L127.382,112.581 L121.102,112.581 L121.102,107.424 L129.881,107.424 L129.881,101.408 L121.102,101.408 L121.102,101.077 L120.44,101.077 L120.44,112.581 L114.158,112.581 L114.158,113.464 L110.745,113.464 L114.118,117.298 L114.158,117.298 L114.158,123.028 L113.032,123.028 L113.032,123.909 L111.538,123.909 L113.032,125.607 L113.032,140.143 L106.739,140.143 L104.55,82.391 C108.158,81.096 110.738,77.646 110.738,73.594 C110.738,69.628 108.268,66.242 104.78,64.885 L104.78,53.503 L102.562,53.503 L102.562,23.833 L100.225,23.833 L100.225,53.503 L98.006,53.503 L98.006,64.885 C94.521,66.242 92.049,69.628 92.049,73.594 C92.049,77.646 94.63,81.096 98.236,82.391 L96.046,140.143 L88.608,140.143 L87.167,121.955 L88.369,120.752 L87.345,120.752 L87.345,117.141 L90.241,114.245 L87.39,114.245 L87.39,113.353 L86.497,113.353 L86.497,110.413 L87.479,109.432 L87.479,109.076 L65.998,108.363 L64.841,108.363 L64.841,107.74 L62.788,107.74 C63.094,107.262 63.472,106.637 63.928,105.823 C65.398,103.193 63.258,105.155 63.258,103.996 C63.258,102.837 63.793,103.461 63.793,101.946 C63.793,100.431 63.793,100.609 63.08,100.609 C62.368,100.609 61.654,102.748 61.654,102.748 C61.654,102.748 61.654,103.64 60.496,103.64 C59.601,103.64 59.504,106.456 59.506,107.74 L59.499,107.74 C59.466,106.898 59.367,105.179 59.07,102.392 C58.624,98.203 57.733,101.946 57.465,101.679 C57.465,97.579 56.574,98.916 56.574,98.381 C56.574,97.846 55.86,96.599 55.86,96.599 C55.86,96.599 57.477,95.562 56.039,94.905 C56.039,94.905 57.755,92.53 57.266,92.844 C56.586,93.278 54.534,93.223 53.989,92.855 C53.655,92.63 53.989,94.448 55.415,94.894 C54.034,95.651 55.606,96.599 55.606,96.599 C55.606,96.599 55.415,97.315 55.257,97.892 C55.191,98.127 55.1,98.341 54.971,98.47 C54.524,98.025 54.502,100.319 54.502,100.319 L53.499,101.322 C53.12,101.701 53.499,102.614 53.187,102.926 C52.876,103.238 52.653,104.53 52.653,105.601 C52.653,106.67 52.653,107.74 52.207,107.294 C51.761,106.848 52.207,105.601 52.207,104.441 C52.207,103.283 51.584,102.926 50.848,102.926 C50.112,102.926 50.848,101.657 49.846,100.654 C48.843,99.651 48.843,101.657 49.132,101.946 C49.423,102.235 49.132,102.704 49.534,103.104 C49.934,103.505 48.464,104.263 49.356,105.155 C49.913,105.712 49.86,106.917 49.742,107.74 L47.015,107.74 L47.015,108.273 L46.303,108.273 L46.303,108.988 L24.199,108.988 L25.091,110.859 L25.091,113.621 L24.735,113.621 L24.735,114.423 L21.972,114.868 L24.823,118.524 L24.378,120.93 L24.021,120.93 L24.021,121.464 L24.735,122.178 L23.557,140.143 L3.669,140.143 C17.561,184.624 59.078,216.909 108.136,216.909 L108.136,216.909 Z M81.328,123.336 L81.871,140.143 L76.556,140.143 L76.248,123.336 L81.328,123.336 L81.328,123.336 Z M65.376,140.142 L71.347,140.142 L71.347,123.336 L65.376,123.336 L65.376,140.142 Z M50.671,140.142 L60.741,140.142 L60.741,123.602 L50.671,123.602 L50.671,140.142 Z M40.242,140.143 L46.57,140.143 L46.57,123.425 L40.242,123.425 L40.242,140.143 Z M29.726,140.142 L35.875,140.142 L35.875,122.979 L29.726,122.979 L29.726,140.142 Z" id="Fill-136" fill="#000000"></path>
            </g>
        </g>
    </g>
</svg>