<?xml version="1.0" encoding="UTF-8" standalone="no"?>
<svg width="220px" height="222px" viewBox="0 0 220 222" version="1.1" xmlns="http://www.w3.org/2000/svg" xmlns:xlink="http://www.w3.org/1999/xlink">
    <!-- Generator: Sketch 3.6.1 (26313) - http://www.bohemiancoding.com/sketch -->
    <title>Inner</title>
    <desc>Created with Sketch.</desc>
    <defs></defs>
    <g id="Page-1" stroke="none" stroke-width="1" fill="none" fill-rule="evenodd">
        <g id="Frankfurt" transform="translate(-34.000000, -31.000000)">
            <g id="Inner" transform="translate(34.000000, 34.000000)">
                <path d="M109.935013,0.059 C86.0077049,0.059 63.911293,7.88423988 46.056866,21.1118502 L46.0460671,21.119704 C19.6340418,40.6911482 2.51000977,72.0863523 2.51000977,107.484003 C2.51000977,166.812889 50.6061272,214.909006 109.935013,214.909006 C131.091925,214.909006 150.820443,208.788021 167.44871,198.226745 C167.449691,198.226745 167.449691,198.225764 167.449691,198.225764 C197.44988,179.170701 217.360016,145.654013 217.360016,107.484003 C217.360016,48.1541357 169.26488,0.059 109.935013,0.059" id="Fill-169" stroke="#979797" stroke-width="5" fill="#FFFFFF"></path>
                <path d="M109.935,218.911 C131.486,218.911 151.582,212.676 168.52,201.918 C168.521,201.918 168.521,201.917 168.521,201.917 C197.989,183.201 217.893,150.784 219.277,113.631 L207.336,113.631 L207.205,105.29 L202.497,105.29 L202.497,100.958 L193.837,100.958 L193.837,85.331 L184.045,85.331 L184.045,94.745 L180.844,94.745 L180.844,91.355 L172.935,91.355 L172.935,72.338 L167.287,72.338 L167.287,67.254 L163.709,67.254 L159.566,63.111 L159.566,50.308 L158.061,50.308 L158.061,63.865 L156.178,63.865 L156.178,65.748 L153.729,65.748 L153.729,94.181 L150.152,94.181 L150.152,89.85 L145.066,89.85 L145.066,110.373 L143.56,110.373 L143.56,78.741 L141.113,78.741 L141.113,77.233 L139.041,77.233 L139.041,60.664 L130.004,60.664 L130.004,63.677 L127.745,63.677 L127.745,57.086 L124.166,57.086 L124.166,51.437 L121.343,51.437 L121.343,22.44 L120.024,22.44 L120.024,38.256 L117.012,38.256 L117.012,92.486 L103.078,95.123 L103.078,106.231 L98.182,106.231 L98.182,95.31 L94.228,93.803 L81.801,93.803 L81.801,83.635 L76.716,83.635 L72.95,76.48 L69.749,83.259 L68.055,83.259 L68.055,80.435 L65.042,80.435 L65.042,79.305 L60.523,79.305 L60.523,78.175 L52.426,78.175 L52.426,81.188 L46.213,81.188 L46.213,79.87 L39.246,79.87 L39.246,84.2 L37.175,84.2 L37.175,97.193 L33.974,97.193 L33.974,110.938 L33.032,110.938 L33.032,118.283 L30.961,118.283 L30.961,88.909 L29.078,88.909 L29.078,85.895 L20.04,85.895 L20.04,117.716 L0.816,117.716 C5.025,174.306 52.27,218.911 109.935,218.911" id="Fill-170" fill="#000000"></path>
            </g>
        </g>
    </g>
</svg>