<?xml version="1.0" encoding="UTF-8" standalone="no"?>
<svg width="221px" height="222px" viewBox="0 0 221 222" version="1.1" xmlns="http://www.w3.org/2000/svg" xmlns:xlink="http://www.w3.org/1999/xlink">
    <!-- Generator: Sketch 3.6.1 (26313) - http://www.bohemiancoding.com/sketch -->
    <title>Inner</title>
    <desc>Created with Sketch.</desc>
    <defs></defs>
    <g id="Page-1" stroke="none" stroke-width="1" fill="none" fill-rule="evenodd">
        <g id="Hamburg" transform="translate(-33.000000, -32.000000)">
            <g id="Inner" transform="translate(35.000000, 35.000000)">
                <path d="M108.324015,0.25 C84.3986707,0.25 62.3012771,8.07523988 44.4468501,21.3028502 L44.4360512,21.310704 C18.0230442,40.8821482 0.899993896,72.2773523 0.899993896,107.675985 C0.899993896,167.00487 48.9961114,215.100006 108.324015,215.100006 C129.482891,215.100006 149.210427,208.979021 165.837712,198.417745 C165.839676,198.417745 165.839676,198.416764 165.840657,198.416764 C195.839865,179.361701 215.75,145.845995 215.75,107.675985 C215.75,48.3461175 167.654864,0.25 108.324015,0.25" id="Fill-67" stroke="#979797" stroke-width="5" fill="#FFFFFF"></path>
                <path d="M108.326,218.102 C129.879,218.102 149.974,211.867 166.911,201.109 C166.913,201.109 166.913,201.108 166.914,201.108 C192.124,185.096 210.327,159.051 215.931,128.595 L212.869,128.595 L212.869,117.297 L213.186,117.297 L207.186,110.982 L198.211,110.982 L195.085,107.855 L191.956,110.982 L182.624,110.982 L182.624,110.245 L183.202,110.245 L183.202,109.299 L181.133,109.299 L181.133,96.826 L181.573,96.826 L181.573,96.107 L179.759,96.107 L179.759,88.302 L180.069,88.302 L180.069,87.795 L179.362,87.795 L179.362,80.112 C179.487,80.156 179.608,80.199 179.727,80.247 C179.757,79.953 179.771,79.651 179.771,79.345 C179.771,76.39 178.377,73.976 176.627,73.841 L176.627,67.098 L179.509,67.098 L179.509,64.992 L176.627,64.992 L176.627,63.94 L176.31,63.94 L176.31,73.841 C174.56,73.976 173.165,76.39 173.165,79.345 C173.165,79.617 173.177,79.885 173.2,80.147 C173.32,80.104 173.446,80.064 173.574,80.027 L173.574,87.795 L172.868,87.795 L172.868,88.302 L173.177,88.302 L173.177,96.107 L171.364,96.107 L171.364,96.826 L171.801,96.826 L171.801,109.299 L169.731,109.299 L169.731,110.245 L170.311,110.245 L170.311,128.595 L164.063,128.595 L162.679,85.549 L167.46,83.701 L167.482,83.364 L167.294,83.364 L167.294,82.346 L167.552,82.346 L167.571,82.051 L167.388,82.051 L167.388,81.032 L167.64,81.032 L167.663,80.695 L162.489,79.607 L162.344,75.114 L171.981,72.255 L171.981,69.984 L163.375,68.891 L162.144,68.891 L162.058,66.254 L163.578,66.254 L163.578,65.555 L162.036,65.555 L162.02,64.989 L163.776,64.989 L163.776,64.29 L161.995,64.29 L161.974,63.638 L164.042,63.638 L164.042,62.94 L161.953,62.94 L161.931,62.27 L164.042,62.27 L164.042,61.573 L161.909,61.573 L161.888,60.906 L163.776,60.906 L163.776,60.207 L161.864,60.207 L161.845,59.624 L163.578,59.624 L163.578,58.928 L161.823,58.928 L161.247,40.983 L160.575,40.899 L160.575,24.281 L159.606,24.281 L159.606,40.899 L158.932,40.983 L158.356,58.928 L156.602,58.928 L156.602,59.624 L158.334,59.624 L158.315,60.207 L156.402,60.207 L156.402,60.906 L158.291,60.906 L158.272,61.573 L156.137,61.573 L156.137,62.27 L158.248,62.27 L158.227,62.94 L156.137,62.94 L156.137,63.638 L158.205,63.638 L158.184,64.29 L156.402,64.29 L156.402,64.989 L158.16,64.989 L158.142,65.555 L156.602,65.555 L156.602,66.254 L158.121,66.254 L158.037,68.891 L156.805,68.891 L148.195,69.984 L148.195,72.255 L157.837,75.114 L157.69,79.607 L152.516,80.695 L152.539,81.032 L152.793,81.032 L152.793,82.051 L152.606,82.051 L152.625,82.346 L152.883,82.346 L152.883,83.364 L152.696,83.364 L152.721,83.701 L157.501,85.519 L156.115,128.595 L151.186,128.595 L151.186,103.581 L150.1,103.581 L150.1,105.284 L149.066,105.284 L149.066,102.034 L149.996,102.034 L148.893,100.932 L148.432,96.994 L146.815,95.378 L145.198,96.994 L144.682,100.921 L143.567,102.034 L144.5,102.034 L144.5,105.284 L141.942,105.284 L141.942,100.391 L140.856,100.391 L140.856,105.284 L138.107,105.284 L138.107,102.034 L139.037,102.034 L137.935,100.932 L137.473,96.994 L135.856,95.378 L134.238,96.994 L133.721,100.921 L132.607,102.034 L133.539,102.034 L133.539,105.284 L131.285,105.284 L131.285,103.382 L130.197,103.382 L130.197,105.284 L127.64,105.284 L127.64,102.034 L128.572,102.034 L127.469,100.932 L127.01,96.994 L125.391,95.378 L123.773,96.994 L123.256,100.921 L122.144,102.034 L123.074,102.034 L123.074,105.284 L120.845,105.284 L120.845,101.641 L119.757,101.641 L119.757,105.284 L117.227,105.284 L117.227,102.034 L118.157,102.034 L117.056,100.932 L116.592,96.994 L114.975,95.378 L113.357,96.994 L112.84,100.921 L111.728,102.034 L112.658,102.034 L112.658,105.284 L111.654,105.284 L111.654,103.217 L110.566,103.217 L110.566,128.595 L106.473,128.595 L106.473,123.891 L106.069,123.891 L101.589,113.25 L101.589,100.299 L103.254,100.299 L103.254,91.409 L100.194,91.409 L105.352,73.628 L115.354,90.175 L106.789,72.141 L106.09,64.125 L106.092,64.121 L105.971,62.762 L88.003,82.209 L81.397,82.209 L81.397,84.616 L87.941,84.616 L87.941,91.409 L84.855,91.409 L84.855,100.299 L94.551,100.299 L94.551,113.57 L90.207,123.891 L89.674,123.891 L89.674,128.595 L81.391,128.595 L81.391,109.478 L80.986,109.478 L76.507,98.838 L76.507,85.888 L78.17,85.888 L78.17,76.998 L75.111,76.998 L80.27,59.216 L90.272,75.763 L81.707,57.727 L81.006,49.714 L81.011,49.708 L80.886,48.35 L62.92,67.799 L56.315,67.799 L56.315,70.206 L62.859,70.206 L62.859,76.998 L59.773,76.998 L59.773,85.888 L69.469,85.888 L69.469,99.158 L65.125,109.478 L64.59,109.478 L64.59,128.595 L57.766,128.595 L57.766,94.291 C53.157,96.495 51.153,90.887 50.551,90.284 C44.641,98.6 37.227,88.883 34.622,85.374 C27.81,87.679 20.195,79.664 19.395,78.864 C13.483,93.792 10.529,91.337 9.877,90.685 C5.269,103.709 3.364,101.504 3.364,101.504 L3.364,128.595 L0.715,128.595 C10.081,179.519 54.695,218.102 108.326,218.102 L108.326,218.102 Z M177.679,79.733 C177.968,79.771 178.247,79.82 178.521,79.881 L178.521,87.795 L177.679,87.795 L177.679,79.733 L177.679,79.733 Z M175.994,79.652 C176.106,79.649 176.216,79.647 176.33,79.647 C176.501,79.647 176.669,79.651 176.835,79.659 L176.835,87.795 L175.994,87.795 L175.994,79.652 L175.994,79.652 Z M174.415,79.824 C174.655,79.78 174.899,79.742 175.152,79.713 L175.152,87.795 L174.415,87.795 L174.415,79.824 L174.415,79.824 Z M95.477,123.891 L95.477,119.524 L99.844,123.891 L95.477,123.891 L95.477,123.891 Z M100.663,123.703 L95.575,118.617 L100.663,113.529 L100.663,123.703 L100.663,123.703 Z M95.477,117.709 L95.477,107.486 L100.587,112.597 L95.477,117.709 L95.477,117.709 Z M100.663,111.669 L95.647,106.653 L100.663,101.637 L100.663,111.669 L100.663,111.669 Z M101.589,115.636 L105.065,123.891 L101.589,123.891 L101.589,115.636 L101.589,115.636 Z M100.663,100.299 L100.663,100.631 L95.477,105.815 L95.477,100.299 L100.663,100.299 L100.663,100.299 Z M93.854,91.409 L89.671,82.519 L105.602,64.671 L105.828,70.113 L104.857,68.072 L95.27,91.409 L93.854,91.409 L93.854,91.409 Z M94.551,115.956 L94.551,123.891 L91.212,123.891 L94.551,115.956 L94.551,115.956 Z M70.395,109.478 L70.395,105.111 L74.761,109.478 L70.395,109.478 L70.395,109.478 Z M75.58,109.292 L70.493,104.204 L75.58,99.116 L75.58,109.292 L75.58,109.292 Z M70.395,103.295 L70.395,93.077 L75.504,98.186 L70.395,103.295 L70.395,103.295 Z M75.58,97.256 L70.565,92.239 L75.58,87.225 L75.58,97.256 L75.58,97.256 Z M76.507,101.225 L79.981,109.478 L76.507,109.478 L76.507,101.225 L76.507,101.225 Z M75.58,85.888 L75.58,86.218 L70.395,91.404 L70.395,85.888 L75.58,85.888 L75.58,85.888 Z M68.771,76.998 L64.588,68.105 L80.519,50.259 L80.746,55.703 L79.776,53.659 L70.186,76.998 L68.771,76.998 L68.771,76.998 Z M69.469,101.545 L69.469,109.478 L66.129,109.478 L69.469,101.545 L69.469,101.545 Z" id="Fill-68" fill="#000000"></path>
            </g>
        </g>
    </g>
</svg>