<?xml version="1.0" encoding="UTF-8" standalone="no"?>
<svg width="221px" height="221px" viewBox="0 0 221 221" version="1.1" xmlns="http://www.w3.org/2000/svg" xmlns:xlink="http://www.w3.org/1999/xlink">
    <!-- Generator: Sketch 3.6.1 (26313) - http://www.bohemiancoding.com/sketch -->
    <title>Inner</title>
    <desc>Created with Sketch.</desc>
    <defs></defs>
    <g id="Page-1" stroke="none" stroke-width="1" fill="none" fill-rule="evenodd">
        <g id="Munich" transform="translate(-33.000000, -33.000000)">
            <g id="Inner" transform="translate(36.000000, 36.000000)">
                <path d="M107.804513,0.0600013733 C83.8782964,0.0600013733 61.7810037,7.88618721 43.9266583,21.1137371 L43.9158595,21.1206091 C17.5039548,40.6919639 0.380001068,72.0870245 0.380001068,107.484514 C0.380001068,166.81411 48.4758988,214.909026 107.804513,214.909026 C128.96231,214.909026 148.689757,208.788069 165.317947,198.227823 C165.318929,198.227823 165.318929,198.226841 165.319911,198.226841 C195.318981,179.170884 215.230007,145.654349 215.230007,107.484514 C215.230007,48.1558991 167.134109,0.0600013733 107.804513,0.0600013733" id="Fill-203" stroke="#979797" stroke-width="5" fill="#FFFFFF"></path>
                <path d="M107.802,217.073 C129.354,217.073 149.449,210.838 166.387,200.081 C166.388,200.081 166.388,200.08 166.389,200.08 C190.412,184.821 208.077,160.456 214.537,131.843 C211.902,130.701 209.237,129.896 206.701,129.769 C202.064,129.535 192.794,132.918 184.21,136.599 L184.21,114.913 L182.825,114.913 L182.825,100.23 L181.717,100.23 L181.717,80.857 C182.38,79.497 182.935,78.002 183.407,76.434 C185.129,70.721 178.994,65.602 172.992,65.092 L172.992,62.613 C173.768,62.248 174.309,61.46 174.309,60.544 C174.309,59.281 173.284,58.258 172.021,58.258 C170.758,58.258 169.733,59.281 169.733,60.544 C169.733,61.46 170.274,62.248 171.051,62.613 L171.051,65.092 C165.049,65.602 158.914,70.721 160.635,76.434 C161.108,78.002 161.662,79.497 162.325,80.857 L162.325,100.23 L161.217,100.23 L161.217,114.913 L159.833,114.913 L159.833,124.035 L157.061,124.035 L157.061,114.913 L155.677,114.913 L155.677,100.23 L154.569,100.23 L154.569,80.857 C155.231,79.497 155.786,78.002 156.259,76.434 C157.979,70.721 151.846,65.602 145.842,65.092 L145.842,62.613 C146.62,62.248 147.158,61.46 147.158,60.544 C147.158,59.281 146.134,58.258 144.872,58.258 C143.609,58.258 142.586,59.281 142.586,60.544 C142.586,61.46 143.125,62.248 143.903,62.613 L143.903,65.092 C137.899,65.602 131.765,70.721 133.487,76.434 C133.959,78.002 134.513,79.497 135.176,80.857 L135.176,100.23 L134.067,100.23 L134.067,114.913 L132.684,114.913 L132.684,124.035 L95.537,124.035 L90.303,138.128 C86.368,136.108 82.034,133.994 77.918,132.216 L77.256,107.889 L82.483,107.889 L82.483,106.227 L80.405,106.227 L80.405,104.147 L82.483,104.147 L82.483,102.486 L80.405,102.486 L80.405,100.409 L82.483,100.409 L82.483,98.746 L77.007,98.746 L76.726,88.358 L84.405,88.358 L84.405,72.775 L76.302,72.775 L76.155,67.373 L78.12,67.373 L78.12,64.879 L76.087,64.879 L75.523,44.102 L74.068,44.102 L74.068,19.377 L72.406,19.377 L72.406,44.102 L71.14,44.102 L70.548,64.879 L68.355,64.879 L68.355,67.373 L70.478,67.373 L70.323,72.775 L62.069,72.775 L62.069,88.358 L69.88,88.358 L69.584,98.746 L63.991,98.746 L63.991,100.409 L66.069,100.409 L66.069,102.486 L63.991,102.486 L63.991,104.147 L66.069,104.147 L66.069,106.227 L63.991,106.227 L63.991,107.889 L69.324,107.889 L68.728,128.802 C66.755,128.241 65.028,127.915 63.68,127.915 C53.706,127.915 41.24,138.165 36.808,139.273 C32.375,140.381 30.436,144.813 21.571,140.381 C14.824,137.007 6.325,135.244 1.91,135.323 C14.169,182.356 56.93,217.073 107.802,217.073" id="Fill-204" fill="#000000"></path>
            </g>
        </g>
    </g>
</svg>