<?xml version="1.0" encoding="utf-8"?>
<!-- Generator: Adobe Illustrator 15.1.0, SVG Export Plug-In . SVG Version: 6.00 Build 0)  -->
<!DOCTYPE svg PUBLIC "-//W3C//DTD SVG 1.1//EN" "http://www.w3.org/Graphics/SVG/1.1/DTD/svg11.dtd">
<svg version="1.1" id="Layer_1" xmlns="http://www.w3.org/2000/svg" xmlns:xlink="http://www.w3.org/1999/xlink" x="0px" y="0px"
	 width="1822.633px" height="766.566px" viewBox="0 0 1822.633 766.566" enable-background="new 0 0 1822.633 766.566"
	 xml:space="preserve">
<metadata><?xpacket begin="﻿" id="W5M0MpCehiHzreSzNTczkc9d"?>
<x:xmpmeta xmlns:x="adobe:ns:meta/" x:xmptk="Adobe XMP Core 5.0-c060 61.134777, 2010/02/12-17:32:00        ">
   <rdf:RDF xmlns:rdf="http://www.w3.org/1999/02/22-rdf-syntax-ns#">
      <rdf:Description rdf:about=""
            xmlns:xmp="http://ns.adobe.com/xap/1.0/"
            xmlns:xmpGImg="http://ns.adobe.com/xap/1.0/g/img/">
         <xmp:CreateDate>2005-04-19T17:04:57Z</xmp:CreateDate>
         <xmp:ModifyDate>2005-04-19T18:04:24Z</xmp:ModifyDate>
         <xmp:CreatorTool>Illustrator</xmp:CreatorTool>
         <xmp:Thumbnails>
            <rdf:Alt>
               <rdf:li rdf:parseType="Resource">
                  <xmpGImg:width>256</xmpGImg:width>
                  <xmpGImg:height>108</xmpGImg:height>
                  <xmpGImg:format>JPEG</xmpGImg:format>
                  <xmpGImg:image>/9j/4AAQSkZJRgABAgEASABIAAD/7QAsUGhvdG9zaG9wIDMuMAA4QklNA+0AAAAAABAASAAAAAEA&#xA;AQBIAAAAAQAB/+4ADkFkb2JlAGTAAAAAAf/bAIQABgQEBAUEBgUFBgkGBQYJCwgGBggLDAoKCwoK&#xA;DBAMDAwMDAwQDA4PEA8ODBMTFBQTExwbGxscHx8fHx8fHx8fHwEHBwcNDA0YEBAYGhURFRofHx8f&#xA;Hx8fHx8fHx8fHx8fHx8fHx8fHx8fHx8fHx8fHx8fHx8fHx8fHx8fHx8fHx8f/8AAEQgAbAEAAwER&#xA;AAIRAQMRAf/EAaIAAAAHAQEBAQEAAAAAAAAAAAQFAwIGAQAHCAkKCwEAAgIDAQEBAQEAAAAAAAAA&#xA;AQACAwQFBgcICQoLEAACAQMDAgQCBgcDBAIGAnMBAgMRBAAFIRIxQVEGE2EicYEUMpGhBxWxQiPB&#xA;UtHhMxZi8CRygvElQzRTkqKyY3PCNUQnk6OzNhdUZHTD0uIIJoMJChgZhJRFRqS0VtNVKBry4/PE&#xA;1OT0ZXWFlaW1xdXl9WZ2hpamtsbW5vY3R1dnd4eXp7fH1+f3OEhYaHiImKi4yNjo+Ck5SVlpeYmZ&#xA;qbnJ2en5KjpKWmp6ipqqusra6voRAAICAQIDBQUEBQYECAMDbQEAAhEDBCESMUEFURNhIgZxgZEy&#xA;obHwFMHR4SNCFVJicvEzJDRDghaSUyWiY7LCB3PSNeJEgxdUkwgJChgZJjZFGidkdFU38qOzwygp&#xA;0+PzhJSktMTU5PRldYWVpbXF1eX1RlZmdoaWprbG1ub2R1dnd4eXp7fH1+f3OEhYaHiImKi4yNjo&#xA;+DlJWWl5iZmpucnZ6fkqOkpaanqKmqq6ytrq+v/aAAwDAQACEQMRAD8A9U4q7FXYq7FXYq8d8y+Y&#xA;9Q8veYpvO1hzuNPutRl0y9sq0FxbWcMcVUBPESQ3MdwUb9qtOhza4MHiw4OoF/P9lOm1Op8GYyfw&#xA;ylwn4D9dvVdG1nTNa0u31TTJ1ubG6XnDMvcdCCDuGUihB3B2zWTgYmjzdtCYmLHJG5Fm7FXYq7FX&#xA;Yq7FXYq7FXYq7FXYq7FXYq7FXYq7FXYq7FXYq7FXYq7FXYq7FXYq7FXYq7FXEgAkmgG5JxVi15r9&#xA;xrUTwaDKINMoVvPMbbRKv2WFlXaaTwk/u1P8xHHL44+H6ufd+txpZeIen6f536v18nl/5pa7o5td&#xA;N8s6NHwsNKAod+vHiu7bnY1JO5ze9maeQvJLnJ5rtnVQlw4ocosX8n+dNe8oXrz6ZS4sLhud7pMr&#xA;FYpG6GSNgD6UtNuVCD+0NhmRrNBHLvyk42g7Tlg2O8XuflP80vKPmRo7eC5+pao/XTLykU1fCPcp&#xA;L/zzY+9M53Po8mPmNnq9PrsWUek7suzFcx2KuxV2KuxV2KuxV2KuxV2KuxV2KuxV2KuxV2KuxV2K&#xA;uxV2KuxV2KuxV2KuxV2KpJqvmZLe8Ol6ZbNqmtAKzWcbcI4VYVD3M5DLCp7Dd2/ZVstjjsWdh+OT&#xA;TPLR4QLl+OagPK9xqREvma6GoKaEaVEpj09TsaNESWuKFa1mYrXdUXD4tfSK8+v7PgjwTL6zfl0/&#xA;b8VbzVrdjpWlSxuUDPGVWM04qlKFiPAZLT4jOWzDVZ444G3zfr2pjUdTluVFI9liB68V2BPz651u&#xA;DHwRp4XU5vEmZJflzQsmghmThKgdfBhXAQDzZRkRuGW+VPzR83+WmSIzNrOkoKGwu3PqotKD0bk8&#xA;nFKCivyXwp1zV6nsuE947F3Oj7Znj2n6ovd/KfnPQPNWnm80ifmY6C5tZBwngdhXhLH+ydjQ7g9i&#xA;c57NgljNSD1ODUQyxuJTvKm92KuxV2KuxV2KuxV2KuxV2KuxV2KuxV2KuxV2KuxV2KuxV2KuxV2K&#xA;uxVItU1DUb2/bRdFkEMsdP0pqRHIWqOvJUiB+Frh1IZQahF+JgaqrWxiAOKXw8/2NM5Enhj8T3ft&#xA;THSdH0/SbT6rYxenGWMkjsS8kkjmrySyMS8jsd2ZiSchOZkbLOEBEUEn8y+ddN0iCTjIjyoPicn9&#xA;2h96dT/kjMnBpZTLi6nWwxjm8J81+b7zXLhxzb6uWqS32nI6FvYdlzpdNpRjHm8hrNdLMf6LHcy3&#xA;AdirsVdiqJ0rVdV0XVItX0ec22oQ/Dy3McsdQTDMopzjanTt1FDmPqNNHLGi5ek1c8Mri+kPInnf&#xA;TvN2ii+t19C8hPpahYMavBNStCduSsPiRu496gcnqNPLFLhL2+l1Mc0OKLI8ocl2KuxV2KuxV2Ku&#xA;xV2KuxV2KuxV2KuxV2KuxV2KuxV2KuxV2KuxVjvnvzUPLeh/WIgr6jeSpZaZC9SrXM2ylqfsIAXb&#xA;2FMv0+HxJV06uPqs/hwvryHvSzQPMek6RokNrwmluV5PcykLWWZyWkldqjd2JY7Zfk08pSvo4+LU&#xA;xhCurFfNf5tBle3tWBrUGKFtv9nL3+S5n6bszqXV6ztgco/Z+t5fqer3+pS+pdSVA+xGNkX5DNzj&#xA;xRgNnns2eWQ3IoLLWl2KuxV2KuxV2Ko3yt5xuvJ/mq21eIs1lIoh1W2Xf1bcsamn88f2k+7oTmu1&#xA;+nGSPm7fsvVHFLyfVdvcQXNvFcW8iywTIskUqGqsjCqspHUEHOWIrZ7MGxYVMCXYq7FXYq7FXYq7&#xA;FXYq7FXYq7FXYq7FXYq7FXYq7FXYq7FXYq+efzj8wSap56azif8A0TQY1gi4sCPrMwWWZwR0KrwS&#xA;nYg50fZOCocR6vJ9uaknIID+H8fj3MTuNT1G4ThPdSyp/KzsR91c2sccRyDpJZpy2JJQuTa3Yq7F&#xA;XYq7FXYq7FXYqlWoOHuCOygL/HKJndy8QoPoL/nH/wAyPqXk+TSZ35XOhy+glakm2kHOCpP8vxRj&#xA;2XOa7QxcGS+hev7Mz8eKjzi9PzAdiwrz7+ZH+Ery1t/0d9d+sxtJy9b0uPFqUp6clc2Oi0Hjgniq&#xA;vL9rqu0O0/y0gOHivzr9BYuP+cgBXfQdu/8Apf8A15zM/kT+n9n7XX/6Iv6H+y/Ymem/nr5dnkCX&#xA;1lcWYY09ReMyD3anFvuU5Tk7HyD6SD9jfi7fxE+oGP2vQtP1Gx1G0jvLGdLi1lFY5YzVT/aO4zVz&#xA;hKBqQou7x5IzjxRNgojIM3Yq7FXYq7FXYq7FXYq7FXYq7FXYq7FXYq8t1j88P0bq99p36F9X6lcS&#xA;2/q/WuPL0nKcuPomladK5usXZHHAS4uYvl+157N29wTlHgvhJH1d3weLPfPqN1d6nIAJNRuZ7xwO&#xA;gM8rPQewBpm608OGADz2ryceWUvNrL3GdirsVdirsVdirsVdiqncTLDGWPX9keJyMjQZQjZSYksS&#xA;TuTuTlDmvTv+ceNSe3873liXKw39gzcN6NLbSoUr8klkzU9qw9ILuuxp1Mx8n0XmjeieK/n3/wAd&#xA;fSv+Yd/+J50PYv0S97yvtD9cfcr/AJX/AJf+V9f8tNfanbPLci4kiDLI6DiqqQKKQP2sj2jrcmLJ&#xA;wxO1MuyuzsObFxTFm+9r8wvyk03TNHm1fRHlUWtGuLSRuYMdaFkY/EONamtdsdD2nKcxCfXqvaPY&#xA;8McDPHe3MJf+SXmKe08wPoruTaagjNHGeizxry5D5opB8dst7XwCWPj6x+5p7C1Jjl8PpL7wyjzH&#xA;+dH6G1y80v8AQ/r/AFSQx+t9Z4cqAGvH0mp9+YeDsnxICXFV+X7XYantzwshhwXXn+xNPOH5r6No&#xA;Ajgt4zf38iLJ6CsEWNXFV9R6NQkGvED7sp0vZs8u59MW/W9r48OwHFL8c0s8m/nDJrmt2+k3WmiF&#xA;7ossc8UhYAqpb4lYf5Pjl2q7L8OBmJXTRou2jlyCBjV+aF1L89PqWo3Vl+hPU+rTSQ+p9a48vTYr&#xA;WnomlaZPH2PxRB4uY7v2teXt/gkY8HI19X7HquaR6JgXnj81P8L6yum/ov65WFJvV9f0vtlhTj6b&#xA;/wAvjmz0fZ3jQ4uKt+79rptf2t+XycHDxbXzr9DJvKXmD/EPl601j0Pqv1r1P3HP1OPpyNH9rila&#xA;8K9Mw9Tg8LIYXdOw0eo8bEJ1V/rpinmj85tC0m4ktNPhOp3MZKyOrCOFWG1OdGLU9hT3zO0/ZU5i&#xA;5HhH2uu1fbePGeGI4z9iQWn5+T+sPrekKYSdzFMQwHyZaN+GZMuxRW0vscKHtCb9UNve9K8teatF&#xA;8x2RutMm5hKCaFxxljJ6B13+8bZqNRpp4jUg77S6vHnjcD+sJldXVtaW8lzcyrDbwqXllc0VVHUk&#xA;nKoxMjQ5t85iIsmgHmOt/ntp8E7RaRYNdotQLmZ/SUnxVAGYj50zcYexpEXM06DP2/EGoR4vM7KO&#xA;k/nzbvMseq6YYYiaNPbyc6e5jYLt/ssll7GNemXzY4faAE1ONe56hpupWOp2UV7YTLcWswrHKnQ9&#xA;iPYjuDmmyY5QPDIUXf4ssckRKJsF8yecf+Uu1z/toXX/ACebOw0v91D+qPueB1v9/P8Ary+9j2mf&#xA;8c20/wCMMf8AxEZbj+ke5qzfWfeUTk2t2Ko/R9C1jWbn6tpdpJdSjdhGNlB7sxoqj5nKsuaGMXI0&#xA;3YdPPKagLLMoPyQ85yxc3ezgalfTklct8vgR1/HMCXa+EHqXaR7Czkb8I+P7Em1v8tPOWjo0txYN&#xA;PbrUme2ImUAdSQvxqPcrl+HtDDk2Bo+ezi5+zM+LcxseW7F8zXXuxVZLKkSFnNB+vATTKMSeSU3F&#xA;w8z8m2A+yvhlEpW5cIcITJvKHmpLA6g2j3i2QXmbgwSBAnXkTT7Pv0yjx4XXEL97kfl8lcXCa9yf&#xA;fku5X80NFAAPNbtT8vqsjf8AGuYvaX90XN7K/vh+Oj6lznXqXiv59/8AHX0r/mHf/iedD2L9Eve8&#xA;r7Q/XH3Mq/JD/lDH/wCYyX/iCZhdr/33wdh2D/cf5x/Qy3zTGknlnV43FVayuAR84mzB05rJH+sP&#xA;vdlqxeKY/on7nz1+XDMvnjRypofXA+gqQc6nX/3Mvc8V2Yf8Ih72vzG/5TjWP+Yg/qGHQ/3Mfcva&#xA;X+MT97LvJH5QfpnT4tW125liiuQJLe3iIEjIfsu7sGoGHQAdO+YGr7U8OXBAcnZaDsbxYieQkA8g&#xA;yjSvyhtNF8y2Gr6Zeu8Fs7NNb3IBYqyMvwugUdT0K/TmHk7UOTGYSG57nYYexo4ssZwlsOheMeZf&#xA;+Uj1X/mMuP8Ak62dBp/7uPuH3PLar+9l/WP3vqrOKfRHgn53/wDKZp/zBxf8TfOn7I/ufi8d29/f&#xA;/wCaP0pjN5jn0j8l9JtrVzHc6k9xBzBoViFxKZCPnsv05SMAnrJE8o0fsDfLUnHoIAc5WPhZtjf5&#xA;e+QZvNd7N6kpttOteP1iZRV2ZuiJXatAd+2Zmu1owAdZFwOzezzqJGzURzZ7rf5F6Q1g50a6njvk&#xA;BMa3DK8bkfsniqla+P4Zq8PbE+L1gcPk7nP2BDh/dk8Xm818ma9eeWvNNvcMTEiy/V7+I94i3GQM&#xA;PFeo9xm31eEZsRHxDodFqJYMwPnR93VnH56eY5zdWugQuVgVBc3YH7TMSI1P+qF5fSM13Y+AUch5&#xA;8g7bt/UmxiHLmf0Jd+Xf5Uxa/YDVtVmkhsZCy20MNA8nE8SxZg1F5Ajpvluu7SOKXBEepp7N7IGa&#xA;PHM1HpSM89/k/a6VpM2q6LPLJHarzubacqx4D7Toyhfs9SCMho+1DOQjMc+rZ2h2KMcDPGTtzBQX&#xA;5KeY57PzCdFd62eoqxRD0WeNSwYf6yqQfHbLO1sAlj4+sfuauw9SY5fD/hl97EPOP/KXa5/20Lr/&#xA;AJPNmdpf7qH9Ufc6zW/38/68vvSSG1msg9jOOM9lJJayr4PA5iYfeuTwSEoAhjqYGOQg96/LWhN/&#xA;Knly58xa7baXAeAlPKaWleES7u33dPfKNTnGKBkXJ0mmObIIDr9z6W0PQtM0TT47DToRDBGNz+07&#xA;d3dv2mPjnIZs0skuKR3e80+nhijwwFBH5U3OxVg/nX8qtF19XurMLp+qmp9ZBSKRuv71B4/zDf55&#xA;stJ2lPFsfVH8cnUa7sjHm9UfTP7D7/1vCPM+i6t5buja6pbPFMa+k1KxyAftI/QjOhx6mE43E28t&#xA;l0eTHLhmK/HRAeX/ACv5j81X/wBX0u1adgR6kp+GGIHu7nZf1ntXKc+ojAXIuTptLLIagHv/AJC/&#xA;J/QfLSx3d6F1LWRRvrDr+7ibwhQ+H8x3+XTNBqdfLJsNovS6Ts2GLc+qX45M/wAwXZPFvL3lS307&#xA;/nIK6is0EVpbWc2oRxLsFE6xxFQANhzmag8M2ubMZaYXz5Om0+nENVKuVX83tOap3LxX8+/+OvpX&#xA;/MO//E86HsX6Je95X2h+uPuZV+SH/KGP/wAxkv8AxBMwu1/774Ow7B/uP84/oR/5oeZ7DSfK99aN&#xA;Mpv7+JreC3DDnxlHF3K9QoUnfxyvs7TynkBr0x3bu1dVHHhlG/VIVXveV/k/pMt951tpwtYLBHuJ&#xA;TTavEog+fJgfozddqZRHCR1ls892LhM9QD0julf5jf8AKcax/wAxB/UMu0P9zH3OP2l/jE/e+iPL&#xA;X/KOaV/zB2//ACaXOU1H95L3n73ttL/dR/qj7kxypvfLvnSymsvNur28oowu5WFe6SOXQ/SrA52e&#xA;kmJYokdwfPtdAxzTB/nF9H6B5g07WtHh1O1mQxOgaYVFY2pVlf8AlK++clmwSxzMSHudPqY5YCYP&#xA;7Hgn5p65aax5wuJrOQS21uiW8cq7q/CpYg9xyYgHOm7OwnHiAPM7vHdrZ45c5MdwNkx862Mll+Xf&#xA;k+CQFXK3ExB60mYSj8HyrST4tRkPu+zZv12Mw0uEHz+3dOPyQ8z6daG80W7kWCW5kWa1dyFDtTgy&#xA;VP7WwoO++Udr6eUqmN65uV2DqoxvHI0TuHrGsazpuj2El9qM6wW8YqSx3Y/yqOrMewGaPFilklwx&#xA;Fl6PNnhijxSNB8ySetr/AJlcwpxm1W8Yog/ZNxLWn0cs7EVix7/wx+54E3my7c5y+8sw/PCxmh82&#xA;xXTD9zdWyGNu3KMlWX6Nj9OYHZEwcVdxdn29jIzA9CGeflF5n06/8s22lCRU1GwVo5LcmjMnIlXU&#xA;dxQ7++aztPTyjkMv4ZO47G1UZ4hC/VHomP5j+Z9O0by1exTSKby8hkgtraoLsZFKcuP8q1qTlOg0&#xA;8smQEcgd2/tPVRxYpAn1SFAPF/yv/wCU80j/AIyP/wAmnzoe0f7iX46vLdlf4zD8dCl3nH/lLtc/&#xA;7aF1/wAnmy3S/wB1D+qPucfW/wB/P+vL70y/NTQjo3n7UOKcLTVgNRtjuQXeiXC1PcSrzI/yxmH2&#xA;Vm4sddQ7HtvT8GXi6SYrm0dK9V/IOGM6nq85H7xIYkVvBXclh/wgzSdtH0xHm9F7PRHHM+Qez5z7&#xA;1LsVdirsVYH51/M/8vtMWTTtS46vMD+9sIY0uFB/yy5EQ9xWo8MztPo8stx6fPk67Va/BH0y9Xlz&#xA;/YmXkPzt5R8w2Xo6EFtHgFZNNKLC8a1pyCJ8JX3U/PK9Tp8mM3LfzbdJqsWQVDbyZVmK5jsVYV5R&#xA;sxeeevN3mIgNH6sGkWb71C2cQNzTtQzPx+aZk5ZVCMfj83EwxvJOfw+TNcxnLeU/nJ5Y1/WNT06X&#xA;TLGS7jihdZGjAIBL1ANTm77K1GPHGQka3ed7b0uTLOJhEmgwKD8vvzBHwRaZcoOtOQQfiwGbM63B&#xA;1kHTR7O1PSJTLTPyb87XswN3FHYRsavLPIrtv1IWMua/OmU5O1cMRt6nIxdiaiZ9QEfef1PYvJvk&#xA;zTPK2nG1tCZZ5SGurpwA0jAbbD7KjsuaHVauWaVnl0D02i0MNPGo7k8y8i88+RvNt95t1S7tNLmm&#xA;tppi0UqgUYUG43ze6PWYo4ogyF083r9BmnmlKMSQS9u0GCWDQ9OgmUpLFawpIh6hljAIPyOc5mIM&#xA;5Ed5er08SMcQeYiPuR2Vtzz78zfy1k8xFNT0somqxLwkjc8VmQfZ+Lsy9q9c2nZ+v8L0y+n7nS9q&#xA;dlnP64fX97x648leb7eb0ZNGvfUqQOEEkgJH8rIGU/Qc38dXiIvij83mJaHODRhL5FmHkj8oNWvL&#xA;2K71+E2enRkObZz+9mpvxIH2F8a7+HjmBq+1IxFYzcvudnoOxpykJZRwx7upTn8/FC2WiqoooecA&#xA;DoBxTMfsXnL4OX7Q/TD4/oYT5a8iXfmPy3fXmnfFqNlOAICaCWNkqVBOwYEbeObHUawYsgEvpIdT&#xA;pez5Z8UpQ+qJ+aXDyj5yuLkWp0q9eZfhCvFIAv8AsmHED3rlv5rCBfFH5tH5PPI1wyv3F6z+Wn5X&#xA;SaFONX1ji+p8SLe3U8lh5CjMWGxem22w9+2j7Q7R8QcEPp+96Psvso4Txz+voO79rKPOvk+x80aS&#xA;bOc+lcRkvaXIFTG9O/irftDMPSaqWGdjl1dhrtFHUQ4TseheD6x+X3nHR7kpJp00yqfgubVWmjPg&#xA;QyAlf9lQ50uLXYcg+ofF5DN2dnxHeJPmN018vfld5j1K1vtQ1G1mgSK2ma1glBWee4EZ9JQrUYAN&#xA;Tc9emU5+0ccCIxIO4vuA6uRpuyssxKUgRQNd5NbIv8vvJPmvT/OOmXl7pk0FrC7mSVwOKgxsBXfx&#xA;OV67V4pYZASBLZ2doc0M8ZSiQB+pA+aPIXnG68y6tc2+lTyQT3txJFIoFGR5WZWG/cHLdPrcQxxB&#xA;kLER9zVq+z88ssyImjI/e9N/NvyTL5l8uiaxTlrWlFrjTx09QEUlg/56qNv8oLmh0Wp8Kd9C9N2h&#xA;pBnx11HJ86wXkEygq3E90b4WBHUEHuM6yMwRYeHnilE0WY/lt5vh8teYRcXRP6PukMF0VFSoJBVw&#xA;O/Ejf2rmJr9N42Oh9Q5Ob2ZrBgy2fpOxfRlpd2t5bx3NpMk9vKOUc0bBkYHuCNs5OUTE0eb3EJiQ&#xA;sGwq4GTHPNP5g+VfLMTHUr1frIFVsYSJLhj2+AH4a+LUHvmRh0s8nIbd7i6jWY8X1Hfu6vHtV/MH&#xA;z3+Ymp/oLy5C1jYyV9SONqMY+he4m/ZTf7K/L4jTNtDS4tPHinufxydJk1mbUy4IbD8cyvb8mfK1&#xA;iyWusedLO01Hb1bb90vEkVp+8lVvpIGD8/OW8YEj8eST2ZjjtLIBL8ebHvNnk/Xvy71Ww1LT9Q9a&#xA;GaslhqduOFSACUZauN1PSpDD6cyMGeOeJBHvDjajTT00hIH3F7b+W/5l6b5tsFikZbfW4EH1u06B&#xA;qbGSKp3U9x1Xv2J02r0hxH+i77Ra6OYVyn3fqTnzZ5j/AEPaRQWirca3qL/VtIsid5JyPtNTcRRD&#xA;45G7KPGmUYsfEd/pHNyc2XhFD6jyRmgaPDo2j2umxOZfQU+rOwo0srkvNKw3+KSRmc+5yM58Rtnj&#xA;hwxATDIM3Yq7FXYq7FXYq7FXYq7FXYq7FXmX53aRq2o2ukrp9lPeGN5jILeJ5SoISnLgDStM3HZG&#xA;WMDLiIHLm6Dt3DOYhwxMufIX3Kv5J6VqmnaXqSahZz2byToyLcRvEWASlQHArg7WyRnKPCQdujLs&#xA;LDOEJcQMd+op6Rmod67FXYq7FXYq7FXYq7FXh/5z/lPctczeavLluZTKTJrGnxCrFu9xCg6sf92K&#xA;Nz9rrXNtodbw+iXLo6XtHQcXrhz6vFEdXUMpDKehGbsF54ikfpuu63phJ03ULmy5GrfV5nir8+BF&#xA;chPHGXMAs4ZZw+kke5H3HnvzpcxGKbXL542+0n1iQA+xoRXIDTYxyiPk2HVZTzlL5pQ1tdmD620U&#xA;ht2fh9YKngX68efSuW2Lpoo1fRO/L3nrX/L2lahp2kvHbjUSpmuwp9dAgIpG9aLUHwqO1Mpy6aGS&#xA;QMujkYdVPHExjtxfNj7uzsXclnYksxNSSepJy9xk/bX/ADRq3lmDy6sb3emaW7XaiOJpHjWhFXcV&#xA;4xrzPtv8so8KEZ8fIy2cnxsk8YhzjHdJLaa7iuoWszKLxnVLYQcvWaRjRVj4fEWJ2FMtmQBvyacY&#xA;kZDh5vpH8q/y6v8ARUbXvMkz3nma7jEY9VzN9UgO/oq5LVc/tsNuw23PO6vUiZqO0XqtFpDjHFI3&#xA;MvRMwnPdirsVdirsVdirsVdirsVdirsVdirsVdirsVdirsVdirsVdirsVdirsVeX/mH+R+l6/PNq&#xA;uhSJpesykvOhB+qXDnq0iqKo57unXupO+Z+m18sex3i63V9mxy7jaTwjzF5Y8xeW7j0Nd0+WxJNI&#xA;52HO3k7/ALuZaxt8q1HcZu8WphkGxefz6TJjO4SwEEVHTL3FeneQfzb07SdATyz5h0sX2jpzCOiq&#xA;7cZHMhWSKT4X+Jia1FM12p0JlPjgak7XSdoxhDw5xuKcTP8A84539ZWMunyNuURbwfcqiVB9GUj8&#xA;3Hz+TefyMt/p+f7UM11/zjtpoMyw3WpFNwp+sCv0SNAv35KtXLqI/L9rG9FHkDL5/sVI9d83+c9P&#xA;k0PyB5di0Py3chornUJFEUbo3wvWQLRqg/EI1dvfKzHHiPFklxzbRLJmjwY48ED+Px1Z9+Xv5R6F&#xA;5RK30jfpLXSpDahIoAjDbFbePf0xTYmpY+NNswtTrJZfIOw0uhhhHfLvZ3mI5rsVdirsVdirsVdi&#xA;rsVdirsVdirsVdirsVdirsVdirsVdirsVdirsVdirsVdiqje/U/qk3130/qfBvrHrcfT4U+Lny+H&#xA;jTrXCLvZEqrfk8U83f8AQuHqT/Y+u0/6UXrUr/k+h/olf9bNng/M9OXn+LdTqPynWr8vxTBH/wCV&#xA;M8z6f+KuPbj+jKf8lPizNH5r+i64/k/6f2Lrf/lSvqj1/wDFPDv6n1Dj/wAkPi+7AfzX9H7Ux/J/&#xA;0vsemeTf+hd/XT9G/U/r3Fafpb1fU5bfZ+vfBzr/AL7+jbNfm/MfxX8P2O00/wCV/hr4/teurx4j&#xA;jTjTanSma92beKuxV2KuxV2KuxV2KuxV2KuxV2KuxV2KuxV2KuxV2KuxV2KuxV2KuxV2Kv8A/9k=</xmpGImg:image>
               </rdf:li>
            </rdf:Alt>
         </xmp:Thumbnails>
      </rdf:Description>
      <rdf:Description rdf:about=""
            xmlns:dc="http://purl.org/dc/elements/1.1/">
         <dc:format>image/svg+xml</dc:format>
      </rdf:Description>
      <rdf:Description rdf:about=""
            xmlns:xmpTPg="http://ns.adobe.com/xap/1.0/t/pg/"
            xmlns:stDim="http://ns.adobe.com/xap/1.0/sType/Dimensions#"
            xmlns:xmpG="http://ns.adobe.com/xap/1.0/g/">
         <xmpTPg:MaxPageSize rdf:parseType="Resource">
            <stDim:w>25.314345</stDim:w>
            <stDim:h>10.646756</stDim:h>
            <stDim:unit>Inches</stDim:unit>
         </xmpTPg:MaxPageSize>
         <xmpTPg:NPages>1</xmpTPg:NPages>
         <xmpTPg:HasVisibleTransparency>False</xmpTPg:HasVisibleTransparency>
         <xmpTPg:HasVisibleOverprint>False</xmpTPg:HasVisibleOverprint>
         <xmpTPg:PlateNames>
            <rdf:Seq>
               <rdf:li>Cyan</rdf:li>
               <rdf:li>Magenta</rdf:li>
               <rdf:li>Yellow</rdf:li>
               <rdf:li>Black</rdf:li>
            </rdf:Seq>
         </xmpTPg:PlateNames>
         <xmpTPg:SwatchGroups>
            <rdf:Seq>
               <rdf:li rdf:parseType="Resource">
                  <xmpG:groupName>Default Swatch Group</xmpG:groupName>
                  <xmpG:groupType>0</xmpG:groupType>
                  <xmpG:Colorants>
                     <rdf:Seq>
                        <rdf:li rdf:parseType="Resource">
                           <xmpG:swatchName>PANTONE 2995 C</xmpG:swatchName>
                           <xmpG:type>SPOT</xmpG:type>
                           <xmpG:tint>100.000000</xmpG:tint>
                           <xmpG:mode>CMYK</xmpG:mode>
                           <xmpG:cyan>90.000000</xmpG:cyan>
                           <xmpG:magenta>11.000000</xmpG:magenta>
                           <xmpG:yellow>0.000000</xmpG:yellow>
                           <xmpG:black>0.000000</xmpG:black>
                        </rdf:li>
                     </rdf:Seq>
                  </xmpG:Colorants>
               </rdf:li>
            </rdf:Seq>
         </xmpTPg:SwatchGroups>
      </rdf:Description>
   </rdf:RDF>
</x:xmpmeta>
                                                                                                    
                                                                                                    
                                                                                                    
                                                                                                    
                                                                                                    
                                                                                                    
                                                                                                    
                                                                                                    
                                                                                                    
                                                                                                    
                                                                                                    
                                                                                                    
                                                                                                    
                                                                                                    
                                                                                                    
                                                                                                    
                                                                                                    
                                                                                                    
                                                                                                    
                                                                                                    
                           
<?xpacket end="w"?>
	</metadata>
<path fill="#0371AA" d="M500.188,144.58c-38.583-24.023-74.981-33.486-111.381-57.51c-22.567-15.288-53.87-51.687-80.077-82.99
	c-5.096,50.23-20.384,70.614-37.855,85.173c-37.127,29.119-60.422,37.855-92.454,55.326C151.486,158.412,5.162,245.77,5.162,433.588
	s157.971,326.135,333.414,326.135c175.443,0,327.591-127.396,327.591-320.311C666.167,246.498,523.483,159.14,500.188,144.58z"/>
<path fill="#FFFFFF" d="M441.06,596.574c11.647,0,24.023,0.729,32.759,6.553c8.735,5.823,13.832,18.927,16.743,26.207
	c2.912,7.279,0,11.647-5.823,14.56c-5.096,2.912-5.824,1.456-10.92-8.008s-9.464-18.928-34.943-18.928
	c-25.479,0-33.486,8.735-45.862,18.928c-12.376,10.191-16.743,13.831-21.111,8.008c-4.368-5.824-2.912-11.647,5.096-18.928
	c8.008-7.279,21.111-18.927,33.487-24.023C422.86,595.847,429.412,596.574,441.06,596.574L441.06,596.574z"/>
<path fill="#FFFFFF" d="M320.215,679.564c14.56,11.647,36.399,21.111,82.989,21.111c46.591,0,79.35-13.104,93.91-24.023
	c6.552-5.096,9.463-0.728,10.191,2.184c0.728,2.912,2.184,7.28-2.912,12.376c-3.64,3.64-37.127,26.936-76.438,30.575
	c-39.312,3.64-92.454,5.824-124.484-23.295c-5.096-5.096-3.641-12.376,0-15.288c3.64-2.911,6.552-5.096,10.919-5.096
	C318.759,678.108,318.031,678.108,320.215,679.564L320.215,679.564z"/>
<path fill="#008ECF" d="M141.86,624.238c55.327-0.729,65.518-10.191,114.293-32.031
	c263.528-117.933,312.303-225.674,321.766-250.425c9.464-24.751,23.296-64.79,8.736-109.197c-2.811-8.572-4.859-15.456-6.339-20.994
	c-35.02-39.159-69.787-60.526-80.291-67.091c-37.854-24.023-74.981-33.487-111.381-57.511C366.077,72.43,334.774,35.303,308.567,4
	c-5.096,50.23-19.655,71.342-37.855,85.173c-37.127,29.12-60.422,37.855-92.454,55.327C151.324,159.06,5,245.689,5,433.508
	c0,59.966,16.105,114.886,43.74,161.869l7.219-0.258C71.246,608.95,95.27,624.966,141.86,624.238z"/>
<path fill="#004975" d="M500.025,144.5c-37.854-24.023-74.981-33.487-111.381-57.511C366.077,72.43,334.774,35.303,308.567,4
	c-5.096,50.23-19.655,71.342-37.855,85.173c-37.127,29.12-60.422,37.855-92.454,55.327C151.324,159.06,5,245.689,5,433.508
	c0,59.966,16.105,114.886,43.74,161.869c58.918,100.171,170.247,164.266,289.674,164.266c175.443,0,327.591-127.396,327.591-320.312
	c0-105.941-43.03-180.041-85.688-227.74C545.297,172.432,510.528,151.064,500.025,144.5z M588.513,229.719
	c47.797,59.757,72.032,130.28,72.032,209.612c0,46.035-8.768,89.522-26.061,129.255c-16.403,37.691-40.025,71.084-70.209,99.252
	c-59.665,55.68-139.876,86.344-225.861,86.344c-42.539,0-84.282-8.125-124.071-24.15c-39.081-15.741-74.299-38.281-104.676-66.993
	C45.692,602.571,10.46,521.056,10.46,433.508c0-77.978,25.311-147.266,75.227-205.938c38.136-44.824,79.258-69.667,95.168-78.267
	c7.724-4.214,14.97-7.933,21.978-11.528c21.966-11.274,42.713-21.923,71.25-44.305c15.217-11.564,31.426-29.881,38.329-76.392
	c24.047,28.601,51.95,60.742,73.273,74.499c18.928,12.492,38.341,21.245,57.116,29.711c17.761,8.008,36.126,16.288,54.3,27.821
	c0.03,0.021,0.682,0.425,0.682,0.425C550.907,182.704,579.211,218.09,588.513,229.719z"/>
<path fill="#93C5E4" d="M312.207,18.56c10.191,29.847,8.735,45.135,8.735,51.687s-3.64,24.023-15.287,32.759
	c-5.096,3.64-6.552,6.552-6.552,7.28c0,2.912,6.552,5.096,6.552,11.647c0,8.008-3.64,24.023-42.223,62.606
	c-38.583,38.583-93.909,72.798-136.86,93.909c-42.951,21.111-63.334,19.655-69.158,9.463s2.184-32.759,29.119-62.606
	c26.935-29.847,112.109-72.798,112.109-72.798l106.285-74.254l5.823-28.392"/>
<path fill="#FFFFFF" d="M312.207,17.832c-6.552,48.046-21.111,62.606-40.767,77.894c-32.759,24.751-64.79,40.039-72.07,43.679
	c-18.927,9.463-87.357,47.318-123.028,101.917c-10.919,16.743,0,23.295,2.184,24.751s26.935,4.368,80.078-27.663
	s76.438-50.958,106.285-82.262c16.016-16.743,18.199-26.207,18.199-30.575c0-5.096-3.64-7.279-9.464-8.735
	c-2.912-0.729-3.64-2.184,0-4.368c3.64-2.184,18.928-9.464,22.567-12.376c3.64-2.912,21.111-14.56,21.84-33.486
	C318.759,47.679,317.303,34.575,312.207,17.832L312.207,17.832z"/>
<path fill="#FFFFFF" d="M148.412,547.072c0.728-56.782,53.871-109.925,120.845-110.652c85.173-0.729,144.14,84.445,187.09,83.717
	c36.399-0.728,106.285-72.069,140.5-72.069c36.399,0,46.591,37.854,46.591,60.422s-7.28,63.334-24.751,88.813
	c-17.472,25.479-28.392,34.943-48.775,33.487c-26.207-2.185-78.621-83.718-112.108-85.174
	c-42.223-1.456-133.948,88.085-206.018,88.085c-43.679,0-56.782-6.551-71.342-16.015
	C158.604,602.398,147.684,579.104,148.412,547.072L148.412,547.072z"/>
<path fill="none" d="M586.655,232.585c14.56,44.407,0.728,84.446-8.736,109.197c-9.463,24.751-58.238,132.492-321.766,250.425
	c-48.775,21.84-58.966,31.303-114.293,32.031c-46.59,0.728-70.614-15.288-85.901-29.119l-7.219,0.258
	c58.918,100.171,170.247,164.266,289.674,164.266c175.443,0,327.591-127.396,327.591-320.312c0-105.941-43.03-180.041-85.688-227.74
	C581.796,217.129,583.845,224.013,586.655,232.585z"/>
<path fill="#008ECF" d="M1318.116,372.782h-49.545l0.083,92.701c0,27.092-11.615,49.008-38.707,49.008
	c-27.102,0-38.823-21.916-38.823-49.008v-92.611h-49.417l-0.015,92.611c0,53.534,34.412,96.922,87.955,96.922
	c53.526,0,88.452-43.388,88.452-96.922L1318.116,372.782z"/>
<rect x="1764.867" y="316.298" fill="#008ECF" width="49.302" height="241.323"/>
<path fill="#008ECF" d="M1101.407,370.765c-42.498-9.808-69.305,32.413-70.419,34.676c-0.546,1.11-0.567,1.758-2.45,1.708
	c-1.556-0.032-1.732-1.708-1.732-1.708l-5.273-32.295h-44.164v184.316h49.505v-99.768c0-8.153,21.954-47.242,64.49-37.18
	c21.513,5.088,30.636,14.216,30.636,14.216s0-35.578,0-56.148C1114.038,374.433,1108.578,372.421,1101.407,370.765z"/>
<path fill="#008ECF" d="M1385.296,618.17v-66.32c0.006,0,0.014,0.008,0.018,0.012l0.008-24.835c0,0,0.078-1.987,1.869-2.013
	c1.598-0.016,1.954,1.043,2.344,2.013c3.752,9.34,24.396,44.923,70.208,33.761c41.01-11.552,71.089-49.211,71.089-93.932
	c0-53.883-43.693-97.581-97.588-97.581c-53.896,0-97.585,43.698-97.585,97.581c0,0,0,133.397,0,151.314H1385.296z M1433.284,417.471
	c27.286,0,49.4,22.119,49.4,49.385c0,27.289-22.114,49.408-49.4,49.408c-27.281,0-49.389-22.119-49.389-49.408
	C1383.896,439.59,1406.003,417.471,1433.284,417.471z"/>
<path fill="#008ECF" d="M1695.216,557.545h49.638v-90.689c0-53.883-43.685-97.581-97.583-97.581c-53.9,0-97.59,43.698-97.59,97.581
	c0,44.721,30.08,82.38,71.09,93.932c45.815,11.162,66.452-24.421,70.209-33.761c0.39-0.97,0.741-2.028,2.344-2.013
	c1.789,0.025,1.863,2.013,1.863,2.013 M1696.621,466.855c0,27.289-22.115,49.408-49.392,49.408
	c-27.283,0-49.402-22.119-49.402-49.408c0-27.266,22.119-49.385,49.402-49.385C1674.506,417.471,1696.621,439.59,1696.621,466.855z"
	/>
<g>
	<path fill="#008ECF" d="M822.286,557.158h-56.314V316.195h60.423c73.167,0,128.66,13.426,128.66,120.48
		C955.055,542.701,896.274,557.158,822.286,557.158z M835.729,357.963h-19.905v157.387l20.444,0.524
		c41.926,0,68.928-3.815,68.928-79.199C905.195,364.386,881.354,357.963,835.729,357.963z"/>
</g>
</svg>
